<?xml version="1.0" standalone="no"?>
<!DOCTYPE svg PUBLIC "-//W3C//DTD SVG 20010904//EN"
 "http://www.w3.org/TR/2001/REC-SVG-20010904/DTD/svg10.dtd">
<svg version="1.0" xmlns="http://www.w3.org/2000/svg"
 width="318.000000pt" height="159.000000pt" viewBox="0 0 318.000000 159.000000"
 preserveAspectRatio="xMidYMid meet">

<g transform="translate(0.000000,159.000000) scale(0.100000,-0.100000)"
fill="#000000" stroke="none">
<path d="M0 795 l0 -795 1590 0 1590 0 0 795 0 795 -1590 0 -1590 0 0 -795z
m781 406 c-9 -6 -10 -11 -2 -15 6 -4 9 -10 7 -14 -5 -9 -744 -7 -753 2 -3 3
-1 6 7 6 10 0 10 3 0 15 -11 13 31 15 371 15 218 0 378 -4 370 -9z m391 -8
c22 -20 23 -70 2 -94 -15 -16 -13 -20 17 -47 26 -23 33 -37 33 -65 0 -71 -61
-101 -174 -88 -36 5 -58 9 -49 10 25 2 29 22 29 156 0 108 -2 125 -17 134 -13
8 3 10 61 11 60 0 84 -4 98 -17z m235 -90 c17 -38 43 -96 58 -130 15 -34 35
-64 44 -66 9 -3 -5 -5 -30 -6 -45 -1 -46 0 -58 39 -12 40 -12 40 -60 40 -46 0
-50 -2 -60 -32 -9 -24 -8 -34 1 -40 8 -4 -8 -7 -37 -7 -31 0 -43 3 -32 8 11 4
40 57 74 134 31 70 59 127 63 127 4 0 21 -30 37 -67z m225 55 c-7 -7 -12 -34
-12 -60 l0 -48 65 0 65 0 0 50 c0 36 -5 52 -17 59 -14 8 -4 10 42 11 46 0 56
-3 47 -12 -8 -8 -12 -51 -12 -129 0 -104 2 -118 18 -122 9 -3 -10 -5 -43 -5
-33 0 -54 2 -47 5 8 3 12 26 12 64 l0 59 -65 0 -65 0 0 -59 c0 -48 3 -60 18
-64 9 -3 -12 -5 -48 -5 -36 0 -57 2 -47 5 15 4 17 19 17 123 0 103 -2 120 -17
129 -14 8 -4 10 42 11 46 0 56 -3 47 -12z m320 3 c-11 -7 -9 -23 9 -90 12 -44
25 -81 28 -81 4 0 22 38 40 85 18 47 37 87 41 90 4 3 26 -39 48 -92 l40 -97
17 59 c9 33 20 72 25 86 5 17 4 31 -3 38 -8 8 1 11 34 11 32 -1 40 -3 28 -10
-9 -5 -35 -68 -59 -140 -24 -72 -48 -129 -53 -127 -4 1 -25 42 -45 90 -20 48
-39 87 -42 87 -3 0 -19 -36 -35 -81 -16 -44 -35 -85 -42 -91 -14 -12 -19 -3
-59 126 -15 45 -35 96 -45 114 l-18 32 52 0 c32 0 47 -4 39 -9z m481 -112 c56
-131 61 -139 92 -139 31 0 35 15 35 146 0 63 3 114 7 114 4 0 52 -44 105 -97
l98 -98 0 80 c0 83 -5 98 -30 108 -8 3 9 6 38 6 49 1 52 0 38 -15 -13 -12 -16
-40 -16 -140 0 -68 -3 -124 -8 -124 -4 0 -51 43 -105 95 l-97 95 0 -80 c0 -74
2 -81 22 -89 16 -6 1 -9 -53 -13 -87 -7 -129 -1 -129 18 0 7 -5 25 -12 39 -9
21 -18 25 -54 25 -39 0 -45 -4 -60 -31 -13 -26 -14 -33 -2 -40 8 -5 -6 -9 -37
-8 -37 0 -45 2 -29 9 14 5 37 47 74 134 29 70 58 125 64 123 5 -2 32 -55 59
-118z m-1643 94 c0 -5 -168 -8 -374 -8 -206 0 -378 3 -382 8 -4 4 164 7 374 7
210 0 382 -3 382 -7z m-3 -39 c2 -6 -139 -9 -372 -10 -261 0 -375 3 -375 11 0
14 742 13 747 -1z m-2 -95 c0 -63 -1 -64 -28 -67 -16 -2 -49 4 -74 12 -58 20
-110 20 -193 0 -54 -13 -75 -13 -121 -4 -53 12 -95 10 -271 -6 -57 -6 -58 -5
-58 20 0 24 4 26 48 28 l47 2 -47 3 c-48 4 -48 4 -48 41 l0 38 373 -1 372 -2
0 -64z m5 -108 c0 -21 -3 -22 -27 -15 -16 5 -79 8 -140 7 -125 -2 -225 -3
-365 -1 -51 0 -121 -3 -155 -7 -62 -7 -63 -7 -63 17 l0 25 375 -1 375 -1 0
-24z m-515 -41 c44 2 122 3 173 2 50 -1 134 -2 185 -2 50 -1 106 0 122 2 25 2
31 -1 33 -20 5 -31 -20 -38 -71 -18 -53 20 -115 20 -187 1 -72 -19 -124 -19
-178 2 -39 14 -54 15 -135 4 -195 -26 -177 -27 -177 9 l0 32 78 -7 c42 -4 113
-6 157 -5z m-129 -76 c36 -14 54 -14 135 -4 174 22 198 23 240 6 50 -20 146
-21 192 -1 20 8 46 15 57 15 18 0 21 -5 18 -37 l-3 -38 -45 3 c-25 2 -70 10
-101 18 -77 19 -123 18 -169 -6 -49 -25 -71 -25 -112 0 -21 13 -51 20 -81 20
-41 0 -166 -21 -219 -36 -15 -5 -18 1 -18 35 0 39 1 41 32 41 18 0 51 -7 74
-16z m1122 -64 c2 -43 1 -44 -12 -21 -39 69 -170 66 -196 -5 -18 -47 -12 -128
13 -165 44 -65 151 -78 182 -21 l14 27 0 -30 c1 -52 -10 -59 -91 -59 -78 0
-116 14 -155 56 -68 72 -50 196 34 246 32 19 51 22 123 19 l85 -2 3 -45z
m1332 19 c0 -28 -1 -29 -16 -15 -9 9 -32 16 -55 16 l-39 0 0 -117 c0 -138 5
-160 34 -166 11 -2 -13 -5 -54 -5 -41 0 -68 2 -60 5 27 10 30 26 30 156 l0
127 -42 0 c-24 0 -49 -7 -60 -17 -16 -14 -18 -14 -18 0 0 45 6 47 146 47 l134
0 0 -31z m-1832 -25 c21 -6 22 -10 22 -135 l0 -129 -375 0 -375 0 0 130 c0
117 2 130 18 130 9 0 26 -7 36 -15 23 -18 145 -20 226 -5 41 8 64 7 106 -6 61
-18 113 -13 178 17 40 18 120 24 164 13z m617 -4 c-6 -9 39 -95 55 -105 10 -6
63 93 55 105 -4 6 36 10 114 10 108 0 123 -2 141 -20 24 -24 25 -38 4 -69 -15
-21 -15 -24 10 -50 35 -37 35 -82 0 -110 -22 -17 -41 -21 -107 -21 -68 0 -78
2 -64 13 15 11 17 28 15 127 l-3 115 -30 0 c-26 0 -36 -9 -72 -65 -37 -55 -43
-72 -43 -117 0 -46 3 -55 23 -63 16 -6 6 -9 -43 -9 -49 0 -61 2 -47 10 31 18
22 84 -23 160 -22 38 -50 75 -62 84 -21 14 -20 15 30 15 33 0 51 -4 47 -10z
m625 -15 c0 -27 -15 -34 -24 -10 -3 9 -19 15 -41 15 -35 0 -35 0 -35 -45 l0
-45 48 0 49 0 -5 -31 c-4 -26 -6 -29 -14 -15 -6 10 -22 16 -43 16 -35 0 -35 0
-35 -45 0 -39 4 -47 26 -57 21 -10 31 -9 56 5 29 17 29 17 26 -6 -3 -21 -8
-22 -98 -24 -70 -2 -90 0 -77 8 15 9 17 26 17 124 0 98 -2 115 -17 124 -13 8
7 10 75 11 92 0 92 0 92 -25z m239 -1 c27 -35 26 -56 -4 -92 l-25 -30 37 -45
c21 -25 52 -52 68 -61 l30 -16 -40 0 c-48 0 -72 15 -109 69 -16 23 -37 41 -47
41 -16 0 -19 -8 -19 -45 0 -38 4 -47 23 -55 16 -6 6 -9 -43 -9 -49 0 -61 2
-47 10 15 9 17 26 17 124 0 98 -2 115 -17 124 -13 8 5 10 69 11 82 0 88 -1
107 -26z m571 1 c0 -27 -15 -34 -24 -10 -3 9 -19 15 -41 15 -35 0 -35 0 -35
-45 l0 -45 45 0 c44 0 45 -1 45 -32 -1 -27 -2 -30 -11 -15 -6 11 -22 17 -44
17 l-35 0 0 -49 c0 -35 4 -51 16 -55 29 -11 54 -6 75 15 l20 20 -3 -28 -3 -28
-95 -2 c-70 -2 -90 0 -77 8 15 9 17 26 17 124 0 98 -2 115 -17 124 -13 8 7 10
75 11 92 0 92 0 92 -25z m148 14 c-13 -7 -18 -23 -18 -57 l0 -46 45 44 c25 24
45 50 45 57 0 9 15 13 48 13 l47 -1 -30 -13 c-16 -8 -49 -34 -73 -58 l-42 -44
63 -67 c35 -37 75 -71 88 -76 21 -8 17 -10 -22 -10 -52 -1 -65 7 -128 82 l-41
48 0 -56 c0 -48 3 -57 23 -65 16 -6 6 -9 -43 -9 -49 0 -61 2 -47 10 15 9 17
26 17 124 0 98 -2 115 -17 124 -14 8 -4 10 42 10 46 0 56 -2 43 -10z"/>
<path d="M94 1189 c19 -12 493 -6 504 6 3 3 -114 5 -259 5 -195 -1 -259 -3
-245 -11z"/>
<path d="M1080 1136 c0 -53 1 -56 25 -56 54 0 51 101 -3 108 -21 3 -22 0 -22
-52z"/>
<path d="M1082 994 c3 -67 4 -69 31 -72 38 -5 57 14 57 53 0 40 -25 72 -63 81
l-28 6 3 -68z"/>
<path d="M1341 1049 c-6 -18 -11 -34 -11 -35 0 -2 14 -4 31 -4 26 0 30 3 24
18 -4 9 -10 25 -12 35 -8 26 -20 21 -32 -14z"/>
<path d="M2346 1056 c-20 -49 -21 -46 14 -46 34 0 35 5 16 51 l-14 33 -16 -38z"/>
<path d="M156 1041 c-8 -12 43 -21 114 -21 32 0 71 3 89 6 61 12 18 24 -89 24
-60 0 -111 -4 -114 -9z"/>
<path d="M450 1042 c-17 -3 1 -9 55 -18 79 -13 154 -6 180 17 10 9 -192 10
-235 1z"/>
<path d="M447 1013 c-5 -4 -63 -6 -130 -5 -67 1 -135 -2 -152 -6 l-30 -9 35
-6 c76 -13 365 -15 405 -3 l40 12 -60 7 c-33 4 -69 9 -80 13 -11 3 -24 2 -28
-3z"/>
<path d="M657 993 c18 -2 50 -2 70 0 21 2 7 4 -32 4 -38 0 -55 -2 -38 -4z"/>
<path d="M1660 654 c0 -44 1 -45 28 -42 21 2 28 9 30 31 4 33 -13 57 -39 57
-16 0 -19 -8 -19 -46z"/>
<path d="M1662 533 c3 -52 5 -58 26 -61 31 -5 52 15 52 47 0 31 -36 71 -64 71
-14 0 -17 -8 -14 -57z"/>
<path d="M2142 643 c3 -54 5 -58 28 -58 16 0 29 9 40 28 13 24 13 30 0 55 -10
17 -26 28 -43 30 l-28 3 3 -58z"/>
</g>
</svg>
