<?xml version="1.0" standalone="no"?>
<!DOCTYPE svg PUBLIC "-//W3C//DTD SVG 20010904//EN"
 "http://www.w3.org/TR/2001/REC-SVG-20010904/DTD/svg10.dtd">
<svg version="1.0" xmlns="http://www.w3.org/2000/svg"
 width="154.000000pt" height="45.000000pt" viewBox="0 0 154.000000 45.000000"
 preserveAspectRatio="xMidYMid meet">

<g transform="translate(0.000000,45.000000) scale(0.100000,-0.100000)"
fill="#000000" stroke="none">
<path d="M505 325 l0 -75 32 0 c52 0 81 43 47 71 -9 7 -13 21 -10 33 7 27 -11
46 -43 46 -26 0 -26 -1 -26 -75z m53 37 c2 -15 -2 -22 -12 -22 -11 0 -16 9
-16 26 0 31 23 28 28 -4z m15 -53 c14 -22 2 -49 -23 -49 -16 0 -20 6 -20 36 0
28 4 35 16 32 9 -2 21 -10 27 -19z"/>
<path d="M755 315 c0 -45 4 -65 13 -65 7 0 12 13 12 30 0 28 3 30 36 30 35 0
36 -1 32 -30 -3 -20 0 -30 9 -30 9 0 13 18 13 65 0 47 -4 65 -13 65 -9 0 -12
-10 -9 -30 4 -29 3 -30 -32 -30 -33 0 -36 2 -36 30 0 17 -5 30 -12 30 -9 0
-13 -20 -13 -65z"/>
<path d="M902 368 c3 -7 13 -38 23 -68 14 -42 20 -50 25 -35 4 10 1 31 -7 45
-7 14 -13 35 -13 48 0 13 -6 22 -16 22 -9 0 -14 -6 -12 -12z"/>
<path d="M1041 333 l-13 -48 -20 45 c-15 34 -21 41 -28 30 -11 -18 -13 -36 -3
-26 4 4 17 -14 28 -40 l20 -46 22 66 c12 36 18 66 14 66 -4 0 -13 -21 -20 -47z"/>
<path d="M1318 333 l4 -48 -28 25 c-16 14 -39 34 -51 44 l-21 17 -4 -60 c-1
-34 0 -61 5 -61 4 0 7 21 7 47 l0 47 50 -49 50 -49 0 67 c0 37 -3 67 -8 67 -4
0 -6 -21 -4 -47z"/>
<path d="M650 360 c0 -6 -11 -33 -24 -60 -13 -28 -20 -50 -16 -50 5 0 12 9 15
20 4 13 15 20 32 20 16 0 27 -7 30 -20 3 -11 11 -20 18 -20 9 0 5 18 -13 60
-24 55 -42 76 -42 50z m20 -46 c0 -8 -7 -14 -15 -14 -17 0 -18 2 -9 24 7 18
24 12 24 -10z"/>
<path d="M1097 310 c-14 -33 -22 -60 -17 -60 4 0 10 9 13 20 3 13 14 20 30 20
17 0 28 -7 32 -20 3 -11 12 -20 19 -20 9 0 6 14 -10 48 -13 26 -24 53 -24 60
0 28 -18 8 -43 -48z m43 -2 c0 -5 -7 -8 -15 -8 -15 0 -20 21 -8 33 7 7 23 -11
23 -25z"/>
<path d="M53 313 c9 -2 25 -2 35 0 9 3 1 5 -18 5 -19 0 -27 -2 -17 -5z"/>
<path d="M343 313 c9 -2 25 -2 35 0 9 3 1 5 -18 5 -19 0 -27 -2 -17 -5z"/>
<path d="M53 263 c9 -2 25 -2 35 0 9 3 1 5 -18 5 -19 0 -27 -2 -17 -5z"/>
<path d="M208 263 c12 -2 32 -2 45 0 12 2 2 4 -23 4 -25 0 -35 -2 -22 -4z"/>
<path d="M53 233 c9 -2 25 -2 35 0 9 3 1 5 -18 5 -19 0 -27 -2 -17 -5z"/>
<path d="M213 233 c15 -2 37 -2 50 0 12 2 0 4 -28 4 -27 0 -38 -2 -22 -4z"/>
<path d="M46 192 c-3 -5 8 -6 25 -4 16 2 29 6 29 8 0 8 -49 4 -54 -4z"/>
<path d="M194 188 c10 -6 27 -6 44 0 24 8 23 9 -17 9 -32 0 -39 -2 -27 -9z"/>
<path d="M515 166 c-51 -51 -20 -118 55 -120 30 -1 44 3 48 14 4 12 2 13 -9 2
-19 -18 -53 -15 -72 6 -20 22 -22 83 -5 100 16 16 60 15 77 0 11 -11 13 -10 9
2 -3 9 -19 16 -41 18 -28 2 -42 -3 -62 -22z"/>
<path d="M1133 183 l29 -4 -4 -70 c-2 -50 0 -69 10 -69 8 0 12 21 12 69 0 68
1 70 28 74 15 2 -2 4 -38 4 -36 0 -52 -2 -37 -4z"/>
<path d="M659 134 c12 -19 21 -48 21 -65 0 -18 5 -29 14 -29 9 0 12 8 8 26 -3
16 4 41 17 65 12 21 18 39 14 39 -5 0 -14 -15 -21 -32 -12 -32 -13 -32 -27
-14 -8 11 -15 26 -15 33 0 7 -7 13 -16 13 -14 0 -13 -5 5 -36z"/>
<path d="M775 105 c0 -61 1 -65 23 -65 60 0 83 44 32 63 -21 8 -30 18 -30 34
0 29 18 30 29 1 5 -15 10 -18 15 -9 11 18 -13 41 -43 41 -25 0 -26 -1 -26 -65z
m60 -30 c0 -11 -8 -21 -17 -23 -14 -3 -18 3 -18 23 0 20 4 26 18 23 9 -2 17
-12 17 -23z"/>
<path d="M885 105 l0 -65 35 1 c23 1 28 3 13 6 -16 3 -23 11 -23 28 0 17 7 25
23 28 l22 4 -22 2 c-17 1 -23 7 -23 25 0 18 7 26 23 29 15 3 10 5 -13 6 l-35
1 0 -65z"/>
<path d="M1000 105 c0 -48 4 -65 14 -65 9 0 12 8 8 25 -3 16 0 25 8 25 7 0 21
-11 32 -25 11 -14 24 -25 30 -25 7 0 1 11 -12 25 -21 22 -22 28 -10 50 17 32
0 55 -41 55 -29 0 -29 0 -29 -65z m55 25 c0 -16 -6 -26 -17 -28 -14 -3 -18 3
-18 28 0 25 4 31 18 28 11 -2 17 -12 17 -28z"/>
<path d="M1270 105 l0 -65 38 1 c30 2 32 3 10 6 -36 6 -40 49 -5 56 l22 4 -22
2 c-17 1 -23 7 -23 25 0 19 6 26 28 29 22 3 20 4 -10 6 l-38 1 0 -65z"/>
<path d="M1380 105 c0 -37 4 -65 10 -65 6 0 10 14 10 32 l0 32 33 -32 c45 -43
59 -41 17 3 l-34 35 29 30 c16 16 25 30 20 30 -5 0 -21 -15 -36 -32 l-28 -33
-1 33 c0 17 -4 32 -10 32 -6 0 -10 -28 -10 -65z"/>
<path d="M50 150 c8 -5 20 -10 25 -10 6 0 3 5 -5 10 -8 5 -19 10 -25 10 -5 0
-3 -5 5 -10z"/>
<path d="M290 150 c-18 -12 -2 -12 25 0 13 6 15 9 5 9 -8 0 -22 -4 -30 -9z"/>
<path d="M133 143 c9 -2 25 -2 35 0 9 3 1 5 -18 5 -19 0 -27 -2 -17 -5z"/>
<path d="M248 133 c7 -3 16 -2 19 1 4 3 -2 6 -13 5 -11 0 -14 -3 -6 -6z"/>
</g>
</svg>
